<svg width="120" height="60" viewBox="0 0 120 60" fill="none" xmlns="http://www.w3.org/2000/svg">
<path d="M50.4489 18.4643H52.8775C53.0385 18.4643 53.193 18.4003 53.3068 18.2865C53.4207 18.1726 53.4847 18.0182 53.4847 17.8571C53.4847 17.6961 53.4207 17.5417 53.3068 17.4278C53.193 17.314 53.0385 17.25 52.8775 17.25H50.4489C50.2879 17.25 50.1335 17.314 50.0196 17.4278C49.9058 17.5417 49.8418 17.6961 49.8418 17.8571C49.8418 18.0182 49.9058 18.1726 50.0196 18.2865C50.1335 18.4003 50.2879 18.4643 50.4489 18.4643Z" fill="black"/>
<path d="M55.5739 18.4643H64.165C64.326 18.4643 64.4805 18.4003 64.5943 18.2865C64.7082 18.1726 64.7722 18.0182 64.7722 17.8571C64.7722 17.6961 64.7082 17.5417 64.5943 17.4278C64.4805 17.314 64.326 17.25 64.165 17.25H55.5739C55.4129 17.25 55.2585 17.314 55.1446 17.4278C55.0308 17.5417 54.9668 17.6961 54.9668 17.8571C54.9668 18.0182 55.0308 18.1726 55.1446 18.2865C55.2585 18.4003 55.4129 18.4643 55.5739 18.4643Z" fill="black"/>
<path d="M50.4489 21.808H58.3904C58.5514 21.808 58.7058 21.7441 58.8197 21.6302C58.9335 21.5163 58.9975 21.3619 58.9975 21.2009C58.9975 21.0399 58.9335 20.8854 58.8197 20.7716C58.7058 20.6577 58.5514 20.5938 58.3904 20.5938H50.4489C50.2879 20.5938 50.1335 20.6577 50.0196 20.7716C49.9058 20.8854 49.8418 21.0399 49.8418 21.2009C49.8418 21.3619 49.9058 21.5163 50.0196 21.6302C50.1335 21.7441 50.2879 21.808 50.4489 21.808Z" fill="black"/>
<path d="M64.1663 20.5938H61.1306C60.9696 20.5938 60.8151 20.6577 60.7013 20.7716C60.5874 20.8854 60.5234 21.0399 60.5234 21.2009C60.5234 21.3619 60.5874 21.5163 60.7013 21.6302C60.8151 21.7441 60.9696 21.808 61.1306 21.808H64.1663C64.3273 21.808 64.4817 21.7441 64.5956 21.6302C64.7095 21.5163 64.7734 21.3619 64.7734 21.2009C64.7734 21.0399 64.7095 20.8854 64.5956 20.7716C64.4817 20.6577 64.3273 20.5938 64.1663 20.5938Z" fill="black"/>
<path d="M59.1918 23.9609H50.4489C50.2879 23.9609 50.1335 24.0249 50.0196 24.1388C49.9058 24.2526 49.8418 24.4071 49.8418 24.5681C49.8418 24.7291 49.9058 24.8835 50.0196 24.9974C50.1335 25.1113 50.2879 25.1752 50.4489 25.1752H59.1918C59.3528 25.1752 59.5073 25.1113 59.6211 24.9974C59.735 24.8835 59.7989 24.7291 59.7989 24.5681C59.7989 24.4071 59.735 24.2526 59.6211 24.1388C59.5073 24.0249 59.3528 23.9609 59.1918 23.9609Z" fill="black"/>
<path d="M55.5732 27.3281H50.4489C50.2879 27.3281 50.1335 27.3921 50.0196 27.506C49.9058 27.6198 49.8418 27.7742 49.8418 27.9353C49.8418 28.0963 49.9058 28.2507 50.0196 28.3646C50.1335 28.4784 50.2879 28.5424 50.4489 28.5424H55.5732C55.7342 28.5424 55.8887 28.4784 56.0025 28.3646C56.1164 28.2507 56.1804 28.0963 56.1804 27.9353C56.1804 27.7742 56.1164 27.6198 56.0025 27.506C55.8887 27.3921 55.7342 27.3281 55.5732 27.3281Z" fill="black"/>
<path d="M75.4154 26.4119L68.1296 26.3329V15.1919C68.1297 14.9025 68.0724 14.616 67.9611 14.3489C67.8498 14.0818 67.6867 13.8393 67.4813 13.6356C67.2758 13.4318 67.032 13.2707 66.764 13.1617C66.496 13.0526 66.209 12.9977 65.9196 13.0001H48.695C48.1137 13.0001 47.5562 13.231 47.1452 13.642C46.7341 14.0531 46.5032 14.6106 46.5032 15.1919V17.2501H45.2039C44.6242 17.2484 44.0672 17.476 43.6544 17.8831C43.2416 18.2902 43.0064 18.8439 43 19.4236V44.8083C43.0008 45.0969 43.0584 45.3826 43.1696 45.6489C43.2808 45.9153 43.4434 46.1571 43.648 46.3606C43.8527 46.5642 44.0954 46.7254 44.3624 46.8351C44.6293 46.9448 44.9153 47.0009 45.2039 47.0001H62.4286C63.0104 47.0001 63.5685 46.7694 63.9805 46.3585C64.3926 45.9476 64.6248 45.3901 64.6264 44.8083V42.7501H66.1686C66.3851 43.0759 66.7149 43.3098 67.0941 43.4063C67.4733 43.5027 67.8748 43.455 68.2207 43.2722L70.2546 42.2097C70.5129 42.0745 70.7291 41.8712 70.88 41.6218C71.031 41.3725 71.1107 41.0866 71.1107 40.7951V37.7047L75.7432 31.1779C76.0983 31.1006 76.4164 30.9044 76.6449 30.6218C76.8734 30.3392 76.9987 29.9871 77 29.6236V28.0086C76.9969 27.5882 76.8293 27.1857 76.5331 26.8873C76.237 26.5888 75.8358 26.4182 75.4154 26.4119ZM75.7796 28.0086V29.6236C75.7781 29.724 75.737 29.8198 75.6655 29.8902C75.5939 29.9606 75.4975 30.0001 75.3971 30.0001H61.5846C61.4848 30.0001 61.3891 29.9604 61.3185 29.8898C61.2479 29.8192 61.2082 29.7235 61.2082 29.6236V27.8569C61.2073 27.8072 61.2165 27.7579 61.2353 27.712C61.2541 27.6661 61.282 27.6245 61.3175 27.5897C61.3527 27.5532 61.3953 27.5246 61.4424 27.5057C61.4895 27.4869 61.54 27.4783 61.5907 27.4804L75.4032 27.6261C75.5042 27.6277 75.6006 27.6685 75.672 27.7399C75.7433 27.8113 75.7841 27.9077 75.7857 28.0086H75.7796ZM70.1818 36.9033H66.8L62.7625 31.2144H74.2193L70.1818 36.9033ZM48.695 14.2144H65.9196C66.1784 14.216 66.4261 14.3195 66.6091 14.5024C66.7921 14.6854 66.8956 14.9331 66.8971 15.1919V26.3208L61.6029 26.2661C61.3912 26.2613 61.1808 26.2997 60.9845 26.379C60.7882 26.4584 60.6102 26.577 60.4614 26.7276C59.7389 27.3651 60.0546 28.7372 59.9939 29.6236C59.995 29.9862 60.1194 30.3377 60.3467 30.6202C60.574 30.9026 60.8907 31.0993 61.2446 31.1779L65.8771 37.7047V41.5358H52.9146V37.4011C52.9146 36.9599 52.7394 36.5368 52.4274 36.2248C52.1154 35.9128 51.6923 35.7376 51.2511 35.7376H47.7175V15.1919C47.7175 14.9326 47.8205 14.684 48.0038 14.5007C48.1871 14.3173 48.4358 14.2144 48.695 14.2144ZM51.5668 41.214L47.9543 37.0004C47.9428 36.9851 47.9327 36.9689 47.9239 36.9519H51.2511C51.3702 36.9519 51.4845 36.9992 51.5688 37.0835C51.653 37.1677 51.7004 37.282 51.7004 37.4011V41.3415C51.6515 41.3038 51.6067 41.2611 51.5668 41.214ZM63.4061 44.8083C63.4045 45.067 63.301 45.3148 63.118 45.4977C62.935 45.6807 62.6873 45.7842 62.4286 45.7858H45.2039C45.0748 45.7866 44.9467 45.7619 44.8271 45.7132C44.7074 45.6646 44.5986 45.5928 44.5067 45.502C44.4148 45.4112 44.3416 45.3033 44.2915 45.1842C44.2413 45.0652 44.2151 44.9375 44.2143 44.8083V19.4236C44.2206 19.166 44.3279 18.9211 44.513 18.7417C44.6981 18.5623 44.9462 18.4627 45.2039 18.4644H46.5032V36.3447C46.4978 36.8746 46.6856 37.3883 47.0314 37.7897L50.6439 42.0033C50.8516 42.2396 51.1076 42.4285 51.3946 42.5574C51.6816 42.6862 51.9929 42.7519 52.3075 42.7501H63.4061V44.8083ZM69.7143 41.1229L67.65 42.1915C67.5941 42.2252 67.5301 42.2431 67.4648 42.2431C67.3995 42.2431 67.3355 42.2252 67.2796 42.1915C67.223 42.1588 67.1759 42.112 67.1429 42.0555C67.1099 41.9991 67.0922 41.9351 67.0914 41.8697V38.1176H69.8904V40.789C69.8936 40.8553 69.879 40.9213 69.8481 40.9801C69.8171 41.0388 69.7709 41.0882 69.7143 41.1229Z" fill="black"/>
</svg>
