<svg width="28" height="28" viewBox="0 0 28 28" fill="none" xmlns="http://www.w3.org/2000/svg">
<path d="M6.13477 4.5H8.13477C8.26737 4.5 8.39455 4.44732 8.48832 4.35355C8.58209 4.25979 8.63477 4.13261 8.63477 4C8.63477 3.86739 8.58209 3.74021 8.48832 3.64645C8.39455 3.55268 8.26737 3.5 8.13477 3.5H6.13477C6.00216 3.5 5.87498 3.55268 5.78121 3.64645C5.68744 3.74021 5.63477 3.86739 5.63477 4C5.63477 4.13261 5.68744 4.25979 5.78121 4.35355C5.87498 4.44732 6.00216 4.5 6.13477 4.5Z" fill="black"/>
<path d="M10.3555 4.5H17.4305C17.5631 4.5 17.6903 4.44732 17.784 4.35355C17.8778 4.25979 17.9305 4.13261 17.9305 4C17.9305 3.86739 17.8778 3.74021 17.784 3.64645C17.6903 3.55268 17.5631 3.5 17.4305 3.5H10.3555C10.2229 3.5 10.0957 3.55268 10.0019 3.64645C9.90815 3.74021 9.85547 3.86739 9.85547 4C9.85547 4.13261 9.90815 4.25979 10.0019 4.35355C10.0957 4.44732 10.2229 4.5 10.3555 4.5Z" fill="black"/>
<path d="M6.13477 7.25781H12.6748C12.8074 7.25781 12.9346 7.20513 13.0283 7.11137C13.1221 7.0176 13.1748 6.89042 13.1748 6.75781C13.1748 6.6252 13.1221 6.49803 13.0283 6.40426C12.9346 6.31049 12.8074 6.25781 12.6748 6.25781H6.13477C6.00216 6.25781 5.87498 6.31049 5.78121 6.40426C5.68744 6.49803 5.63477 6.6252 5.63477 6.75781C5.63477 6.89042 5.68744 7.0176 5.78121 7.11137C5.87498 7.20513 6.00216 7.25781 6.13477 7.25781Z" fill="black"/>
<path d="M17.4297 6.25781H14.9297C14.7971 6.25781 14.6699 6.31049 14.5761 6.40426C14.4824 6.49803 14.4297 6.6252 14.4297 6.75781C14.4297 6.89042 14.4824 7.0176 14.5761 7.11137C14.6699 7.20513 14.7971 7.25781 14.9297 7.25781H17.4297C17.5623 7.25781 17.6895 7.20513 17.7832 7.11137C17.877 7.0176 17.9297 6.89042 17.9297 6.75781C17.9297 6.6252 17.877 6.49803 17.7832 6.40426C17.6895 6.31049 17.5623 6.25781 17.4297 6.25781Z" fill="black"/>
<path d="M13.3348 9.03125H6.13477C6.00216 9.03125 5.87498 9.08393 5.78121 9.1777C5.68744 9.27147 5.63477 9.39864 5.63477 9.53125C5.63477 9.66386 5.68744 9.79104 5.78121 9.8848C5.87498 9.97857 6.00216 10.0312 6.13477 10.0312H13.3348C13.4674 10.0312 13.5946 9.97857 13.6883 9.8848C13.7821 9.79104 13.8348 9.66386 13.8348 9.53125C13.8348 9.39864 13.7821 9.27147 13.6883 9.1777C13.5946 9.08393 13.4674 9.03125 13.3348 9.03125Z" fill="black"/>
<path d="M10.3548 11.7969H6.13477C6.00216 11.7969 5.87498 11.8496 5.78121 11.9433C5.68744 12.0371 5.63477 12.1643 5.63477 12.2969C5.63477 12.4295 5.68744 12.5567 5.78121 12.6504C5.87498 12.7442 6.00216 12.7969 6.13477 12.7969H10.3548C10.4874 12.7969 10.6146 12.7442 10.7083 12.6504C10.8021 12.5567 10.8548 12.4295 10.8548 12.2969C10.8548 12.1643 10.8021 12.0371 10.7083 11.9433C10.6146 11.8496 10.4874 11.7969 10.3548 11.7969Z" fill="black"/>
<path d="M26.695 11.0451L20.695 10.9801V1.80506C20.695 1.56676 20.6478 1.33081 20.5562 1.11084C20.4645 0.89086 20.3302 0.691209 20.161 0.523402C19.9918 0.355595 19.7911 0.222953 19.5704 0.13313C19.3496 0.0433077 19.1133 -0.00191803 18.875 6.23332e-05H4.69C4.21128 6.23332e-05 3.75218 0.190231 3.41367 0.528735C3.07517 0.867238 2.885 1.32635 2.885 1.80506V3.50006H1.815C1.33754 3.49871 0.878884 3.68608 0.538933 4.02135C0.198982 4.35662 0.00527394 4.81263 0 5.29006V26.1951C0.000655703 26.4328 0.0481224 26.668 0.13969 26.8873C0.231257 27.1067 0.365132 27.3059 0.53367 27.4735C0.702209 27.6411 0.90211 27.7738 1.12196 27.8642C1.34181 27.9546 1.57731 28.0007 1.815 28.0001H16C16.4792 28.0001 16.9388 27.8101 17.2781 27.4717C17.6174 27.1333 17.8087 26.6742 17.81 26.1951V24.5001H19.08C19.2583 24.7684 19.5299 24.961 19.8422 25.0405C20.1545 25.1199 20.4851 25.0806 20.77 24.9301L22.445 24.0551C22.6576 23.9437 22.8358 23.7763 22.96 23.5709C23.0843 23.3656 23.15 23.1301 23.15 22.8901V20.3451L26.965 14.9701C27.2574 14.9063 27.5194 14.7448 27.7076 14.512C27.8957 14.2793 27.9989 13.9893 28 13.6901V12.3601C27.9974 12.0138 27.8594 11.6823 27.6155 11.4366C27.3716 11.1908 27.0412 11.0503 26.695 11.0451ZM26.995 12.3601V13.6901C26.9937 13.7727 26.9599 13.8516 26.901 13.9096C26.8421 13.9676 26.7627 14.0001 26.68 14.0001H15.305C15.2228 14.0001 15.1439 13.9674 15.0858 13.9093C15.0277 13.8511 14.995 13.7723 14.995 13.6901V12.2351C14.9942 12.1942 15.0018 12.1536 15.0173 12.1158C15.0328 12.0779 15.0558 12.0437 15.085 12.0151C15.114 11.985 15.149 11.9614 15.1878 11.9459C15.2266 11.9304 15.2683 11.9233 15.31 11.9251L26.685 12.0451C26.7681 12.0464 26.8475 12.08 26.9063 12.1387C26.9651 12.1975 26.9987 12.2769 27 12.3601H26.995ZM22.385 19.6851H19.6L16.275 15.0001H25.71L22.385 19.6851ZM4.69 1.00006H18.875C19.0881 1.00137 19.2921 1.08661 19.4428 1.23729C19.5935 1.38797 19.6787 1.59197 19.68 1.80506V10.9701L15.32 10.9251C15.1457 10.921 14.9724 10.9527 14.8108 11.018C14.6491 11.0834 14.5025 11.181 14.38 11.3051C13.785 11.8301 14.045 12.9601 13.995 13.6901C13.9959 13.9887 14.0983 14.2781 14.2855 14.5107C14.4727 14.7433 14.7335 14.9053 15.025 14.9701L18.84 20.3451V23.5001H8.165V20.0951C8.165 19.7317 8.02066 19.3833 7.76374 19.1263C7.50681 18.8694 7.15835 18.7251 6.795 18.7251H3.885V1.80506C3.885 1.59156 3.96981 1.38681 4.12078 1.23584C4.27175 1.08487 4.4765 1.00006 4.69 1.00006ZM7.055 23.2351L4.08 19.7651C4.07056 19.7525 4.06219 19.7391 4.055 19.7251H6.795C6.89313 19.7251 6.98724 19.764 7.05663 19.8334C7.12602 19.9028 7.165 19.9969 7.165 20.0951V23.3401C7.12475 23.309 7.08788 23.2738 7.055 23.2351ZM16.805 26.1951C16.8037 26.4082 16.7185 26.6122 16.5678 26.7628C16.4171 26.9135 16.2131 26.9988 16 27.0001H1.815C1.70863 27.0007 1.60317 26.9804 1.50464 26.9403C1.40612 26.9002 1.31645 26.8411 1.24077 26.7664C1.16509 26.6916 1.10488 26.6027 1.06357 26.5047C1.02225 26.4066 1.00065 26.3014 1 26.1951V5.29006C1.00524 5.07785 1.09357 4.87618 1.24599 4.72844C1.39841 4.58069 1.60273 4.49869 1.815 4.50006H2.885V19.2251C2.88053 19.6614 3.03517 20.0845 3.32 20.4151L6.295 23.8851C6.46604 24.0796 6.67686 24.2352 6.91321 24.3413C7.14956 24.4474 7.40593 24.5016 7.665 24.5001H16.805V26.1951ZM22 23.1601L20.3 24.0401C20.254 24.0679 20.2013 24.0825 20.1475 24.0825C20.0937 24.0825 20.041 24.0679 19.995 24.0401C19.9484 24.0132 19.9096 23.9746 19.8824 23.9281C19.8552 23.8816 19.8406 23.8289 19.84 23.7751V20.6851H22.145V22.8851C22.1477 22.9397 22.1357 22.994 22.1102 23.0424C22.0847 23.0908 22.0466 23.1314 22 23.1601Z" fill="black"/>
</svg>
